<svg xmlns="http://www.w3.org/2000/svg" width="153.5" height="322" viewBox="0 0 153.5 322">
  <defs>
    <style>
      .cls-1 {
        fill: none;
        stroke: #97ab25;
        stroke-width: 3px;
        fill-rule: evenodd;
      }
    </style>
  </defs>
  <path id="Shape_" data-name="Shape " class="cls-1" d="M1589.52,267.7c-46.98,21.849-110.35,14.2-142.03-29.5-2.18,48.069,42.61,83.028,86.31,90.676-51.35-5.463-103.79-42.607-108.16-97.231-10.92,17.479-14.2,38.237-9.83,58.994,1.09,4.37,2.19,7.647,3.28,12.017,7.65,19.665,20.76,37.145,36.05,51.347-24.03-18.573-44.79-42.607-51.35-74.289-4.37-21.85-4.37-44.792,6.56-63.364-18.57,8.74-31.68,26.22-38.24,44.792-1.09,4.37-2.18,7.647-3.28,12.017-3.27,21.85-2.18,42.607,5.47,63.364-21.85-46.977-14.21-110.341,29.49-142.022-48.07-2.185-83.02,42.606-90.67,86.3,5.46-51.346,42.6-103.785,97.23-108.155-17.48-10.925-38.24-14.2-58.99-9.832-4.37,1.092-7.65,2.184-12.02,3.277-19.67,7.647-37.15,20.757-51.35,36.052,18.57-24.035,42.61-44.792,74.29-51.347,21.85-4.369,44.79-4.369,63.36,6.555-8.74-18.572-26.22-31.682-44.79-38.237-4.37-1.092-7.65-2.185-12.02-3.277-21.84-3.278-42.6-2.185-63.36,5.462,46.98-21.849,110.34-14.2,142.02,29.5,2.19-48.069-42.6-83.028-86.3-90.675,51.34,5.462,103.78,42.607,108.15,97.231,10.93-17.479,14.2-38.237,9.83-58.994-1.09-4.37-2.18-7.648-3.27-12.017-7.65-19.665-20.76-37.144-36.05-51.346,24.03,18.572,44.79,42.606,51.34,74.288,4.37,21.85,4.37,44.792-6.55,63.364,18.57-8.74,31.68-26.219,38.23-44.792,1.1-4.37,2.19-7.647,3.28-12.017,3.28-21.85,2.19-42.607-5.46-63.364,21.85,46.977,14.2,110.341-29.5,142.023,48.07,2.184,83.03-42.607,90.68-86.306-5.46,51.346-42.61,103.785-97.23,108.155,17.48,10.925,38.23,14.2,58.99,9.832,4.37-1.092,7.65-2.185,12.02-3.277,19.66-7.647,37.14-20.757,51.35-36.052-18.58,24.035-42.61,44.792-74.29,51.347-21.85,4.37-44.8,4.37-63.37-6.555,8.74,18.572,26.22,31.682,44.79,38.237,4.37,1.092,7.65,2.185,12.02,3.277,21.85,3.277,42.61,2.185,63.37-5.462h0Z" transform="translate(-1286.5 -33.5)"/>
</svg>
