<svg xmlns="http://www.w3.org/2000/svg" width="365" height="397" viewBox="0 0 365 397">
  <defs>
    <style>
      .cls-1 {
        fill: none;
        stroke: #97ab25;
        stroke-width: 2px;
        fill-rule: evenodd;
      }
    </style>
  </defs>
  <path id="Shape_" data-name="Shape " class="cls-1" d="M342.35,5846.14c-58.169,27.06-136.629,17.59-175.859-36.52-2.705,59.52,52.758,102.81,106.868,112.28-63.579-6.76-128.511-52.76-133.923-120.4-13.527,21.65-17.585,47.35-12.174,73.05,1.352,5.41,2.705,9.47,4.058,14.88,9.469,24.35,25.7,46,44.641,63.58-29.761-22.99-55.463-52.76-63.58-91.99-5.411-27.05-5.411-55.46,8.117-78.45-23,10.82-39.23,32.46-47.347,55.46-1.353,5.41-2.705,9.47-4.058,14.88-4.058,27.05-2.706,52.76,6.764,78.46-27.055-58.17-17.586-136.63,36.524-175.86C52.86,5752.8,9.572,5808.27.1,5862.38c6.764-63.58,52.757-128.51,120.4-133.92-21.644-13.53-47.347-17.59-73.049-12.18-5.411,1.35-9.469,2.71-14.88,4.06-24.35,9.47-45.994,25.7-63.58,44.64,23-29.76,52.758-55.46,91.988-63.58,27.055-5.41,55.463-5.41,78.459,8.12-10.822-23-32.466-39.23-55.462-47.35-5.411-1.35-9.469-2.71-14.88-4.06-27.055-4.06-52.758-2.7-78.46,6.77,58.169-27.06,136.629-17.59,175.858,36.52,2.706-59.52-52.757-102.81-106.867-112.28,63.58,6.76,128.511,52.76,133.923,120.4,13.527-21.65,17.585-47.35,12.174-73.05-1.352-5.41-2.705-9.47-4.058-14.88-9.469-24.35-25.7-46-44.641-63.58,29.761,22.99,55.463,52.75,63.58,91.98,5.411,27.06,5.411,55.47-8.117,78.47,23-10.83,39.23-32.47,47.347-55.47,1.352-5.41,2.7-9.47,4.058-14.88,4.058-27.05,2.705-52.76-6.764-78.46,27.055,58.17,17.586,136.63-36.524,175.86,59.521,2.71,102.809-52.76,112.279-106.87-6.764,63.58-52.758,128.51-120.4,133.93,21.644,13.52,47.347,17.58,73.049,12.17,5.411-1.35,9.469-2.71,14.88-4.06,24.35-9.47,45.994-25.7,63.58-44.64-23,29.76-52.758,55.46-91.987,63.58-27.056,5.41-55.463,5.41-78.46-8.12,10.822,23,32.466,39.23,55.463,47.35,5.411,1.35,9.469,2.71,14.88,4.06,27.055,4.06,52.758,2.7,78.46-6.77h0Z" transform="translate(0 -5557)"/>
</svg>
