<svg xmlns="http://www.w3.org/2000/svg" width="200" height="321" viewBox="0 0 200 321">
  <defs>
    <style>
      .cls-1 {
        fill: none;
        stroke: #97ab25;
        stroke-width: 2px;
        fill-rule: evenodd;
      }
    </style>
  </defs>
  <path id="Shape_" data-name="Shape " class="cls-1" d="M1542.52,5368.7c-46.98,21.85-110.35,14.21-142.03-29.49-2.18,48.07,42.61,83.03,86.31,90.67-51.35-5.46-103.79-42.6-108.16-97.23-10.92,17.48-14.2,38.24-9.83,59,1.09,4.37,2.19,7.64,3.28,12.01,7.65,19.67,20.76,37.15,36.05,51.35-24.03-18.57-44.79-42.61-51.35-74.29-4.37-21.85-4.37-44.79,6.56-63.36-18.57,8.74-31.68,26.22-38.24,44.79-1.09,4.37-2.18,7.65-3.28,12.02-3.27,21.85-2.18,42.6,5.47,63.36-21.85-46.98-14.21-110.34,29.49-142.02-48.06-2.19-83.02,42.6-90.67,86.3,5.46-51.34,42.61-103.78,97.23-108.15-17.48-10.93-38.24-14.2-58.99-9.83-4.37,1.09-7.65,2.18-12.02,3.27-19.67,7.65-37.15,20.76-51.35,36.06,18.57-24.04,42.61-44.8,74.29-51.35,21.85-4.37,44.79-4.37,63.36,6.55-8.74-18.57-26.22-31.68-44.79-38.23-4.37-1.1-7.65-2.19-12.02-3.28-21.84-3.28-42.6-2.19-63.36,5.46,46.98-21.85,110.34-14.2,142.02,29.5,2.19-48.07-42.6-83.03-86.3-90.68,51.34,5.46,103.78,42.61,108.15,97.23,10.93-17.48,14.2-38.23,9.83-58.99-1.09-4.37-2.18-7.65-3.27-12.02-7.65-19.66-20.76-37.14-36.05-51.34,24.03,18.57,44.79,42.6,51.34,74.28,4.37,21.85,4.37,44.8-6.55,63.37,18.57-8.74,31.68-26.22,38.23-44.79,1.1-4.37,2.19-7.65,3.28-12.02,3.28-21.85,2.19-42.61-5.46-63.36,21.85,46.97,14.2,110.34-29.5,142.02,48.07,2.18,83.03-42.61,90.68-86.31-5.46,51.35-42.61,103.79-97.23,108.16,17.48,10.92,38.23,14.2,58.99,9.83,4.37-1.09,7.65-2.19,12.02-3.28,19.66-7.64,37.14-20.75,51.35-36.05-18.58,24.03-42.61,44.79-74.29,51.35-21.85,4.37-44.8,4.37-63.37-6.56,8.74,18.57,26.22,31.68,44.79,38.24,4.37,1.09,7.65,2.18,12.02,3.28,21.85,3.27,42.61,2.18,63.37-5.47h0Z" transform="translate(-1240 -5135)"/>
</svg>
