<svg xmlns="http://www.w3.org/2000/svg" width="321" height="321" viewBox="0 0 321 321">
  <defs>
    <style>
      .cls-1 {
        fill: none;
        stroke: #97ab25;
        stroke-width: 2px;
        fill-rule: evenodd;
      }
    </style>
  </defs>
  <path id="Shape_" data-name="Shape " class="cls-1" d="M366.515,7059.7c-46.976,21.85-110.34,14.21-142.022-29.49-2.185,48.07,42.607,83.03,86.306,90.67-51.347-5.46-103.786-42.6-108.155-97.23-10.925,17.48-14.2,38.24-9.833,59,1.093,4.37,2.185,7.64,3.278,12.01,7.647,19.67,20.757,37.15,36.052,51.35-24.035-18.57-44.792-42.61-51.347-74.29-4.37-21.85-4.37-44.79,6.555-63.36-18.572,8.74-31.682,26.22-38.237,44.79-1.092,4.37-2.185,7.65-3.277,12.02-3.278,21.85-2.185,42.6,5.462,63.36-21.849-46.98-14.2-110.34,29.5-142.02-48.069-2.19-83.028,42.6-90.676,86.3,5.462-51.34,42.607-103.78,97.231-108.15-17.48-10.93-38.237-14.2-58.994-9.83-4.37,1.09-7.647,2.18-12.017,3.27-19.665,7.65-37.145,20.76-51.347,36.06,18.572-24.04,42.607-44.8,74.289-51.35,21.849-4.37,44.792-4.37,63.364,6.55-8.74-18.57-26.22-31.68-44.792-38.23-4.37-1.1-7.647-2.19-12.017-3.28-21.85-3.28-42.607-2.19-63.364,5.46,46.977-21.85,110.34-14.2,142.022,29.5,2.185-48.07-42.606-83.03-86.306-90.68,51.347,5.46,103.786,42.61,108.156,97.23,10.925-17.48,14.2-38.23,9.832-58.99-1.093-4.37-2.185-7.65-3.277-12.02-7.648-19.66-20.757-37.14-36.052-51.34,24.034,18.57,44.791,42.6,51.346,74.28,4.37,21.85,4.37,44.8-6.555,63.37,18.573-8.74,31.682-26.22,38.237-44.79,1.093-4.37,2.185-7.65,3.278-12.02,3.277-21.85,2.185-42.61-5.463-63.36,21.85,46.97,14.2,110.34-29.5,142.02,48.069,2.18,83.029-42.61,90.676-86.31-5.462,51.35-42.607,103.79-97.231,108.16,17.48,10.92,38.237,14.2,58.994,9.83,4.37-1.09,7.648-2.19,12.018-3.28,19.664-7.64,37.144-20.75,51.346-36.05-18.572,24.03-42.607,44.79-74.289,51.35-21.849,4.37-44.791,4.37-63.363-6.56,8.739,18.57,26.219,31.68,44.791,38.24,4.37,1.09,7.648,2.18,12.018,3.28,21.849,3.27,42.606,2.18,63.363-5.47h0Z" transform="translate(-64 -6826)"/>
</svg>
